PathFileType	4	(X/Y/Z)	C:/Users/beibeiliu/ov580/test_trc/User3\sequence.27_training_dense_right.trc
DataRate	CameraRate	NumFrames	NumMarkers	Units	OrigDataRate	OrigDataStartFrame	OrigNumFrames
120	120	12	19	mm	120	242	276
Frame#	Time	ThumbCMC			ThumbMCP			ThumbIP			ThumbTip			IndexMCP			IndexPIP			IndexTip			MiddleMCP			MiddlePIP			MiddleTip			RingMCP			RingPIP			RingTip			PinkyMCP			PinkyPIP			PinkyTip			BackHand1			BackHand2			BackHand3	
		X0	Y0	Z0	X1	Y1	Z1	X2	Y2	Z2	X3	Y3	Z3	X4	Y4	Z4	X5	Y5	Z5	X6	Y6	Z6	X7	Y7	Z7	X8	Y8	Z8	X9	Y9	Z9	X10	Y10	Z10	X11	Y11	Z11	X12	Y12	Z12	X13	Y13	Z13	X14	Y14	Z14	X15	Y15	Z15	X16	Y16	Z16	X17	Y17	Z17	X18	Y18	Z18	
241	2.00833	143.472	43.2226	50.7892	119.611	14.8099	36.9223	118.354	-10.974	21.1273	133.994	-32.7056	12.8812	140.103	18.9304	-19.6445	127.295	1.26224	-33.6553	112.258	-17.8804	-43.5198	153.477	4.16275	-24.2559	134.756	-16.3387	-35.5726	117.163	-44.4202	-33.0555	161.606	-12.8306	-6.06438	143.197	-30.5817	13.0161	146.469	-15.5773	40.3597	176.582	-20.9831	7.28095	156.249	-30.9106	23.6505	160.038	-9.76674	48.6758	196.934	29.9588	19.2255	204.928	40.8407	47.6199	175.324	54.1946	29.2036	
242	2.01667	147.484	38.0579	44.6113	128.777	11.5806	30.448	123.017	-16.2317	14.1487	137.437	-35.2576	7.93813	149.055	19.8142	-25.2975	138.401	-0.108714	-42.3769	129.231	-20.4808	-55.3638	164.693	0.943067	-28.7408	144.985	-19.0792	-45.0692	131.015	-43.9047	-51.0865	172.876	-15.484	-9.98557	150.902	-35.0698	3.42503	152.534	-19.4432	35.7004	186.395	-24.4647	3.86821	162.886	-36.3722	20.2968	161.958	-15.421	44.1002	200.246	24.5409	15.8449	211.484	36.2263	46.674	180.85	51.3799	30.7125	
243	2.025	150.997	34.0254	43.0555	132.836	5.97652	23.964	133.596	-21.0048	5.22073	144.854	-42.7747	-3.04855	161.071	11.476	-35.347	150.965	-2.57567	-51.5556	144.355	-20.3794	-67.3688	176.707	-1.48051	-33.1803	163.696	-20.1904	-51.8248	147.034	-44.1909	-66.9026	180.483	-19.697	-16.3275	160.795	-39.1561	-5.19114	156.478	-28.3344	25.249	192.213	-26.7309	-0.139389	170.107	-39.1034	13.4399	168.724	-23.0641	34.9168	210.988	18.4382	12.9911	214.705	30.8878	43.9657	185.178	47.0087	25.3042	
244	2.03333	156.082	26.7251	37.3577	143.169	-1.74115	14.5751	145.389	-29.0674	-5.6134	158.622	-48.4512	-12.4391	174.295	8.43847	-39.2208	167.48	-6.0999	-60.4743	162.629	-23.6291	-79.6211	187.189	-1.51567	-40.1875	179.63	-22.3165	-59.7709	166.466	-44.3118	-80.6709	194.813	-24.2805	-22.0882	177.451	-46.4816	-11.5978	166.582	-31.71	20.7732	204.823	-32.1756	-3.91851	181.24	-43.3029	7.98816	177.653	-23.8225	33.626	216.608	20.8116	12.3778	219.039	28.3098	42.9701	189.223	41.6008	18.3709	
245	2.04167	160.99	20.4322	31.2694	151.728	-7.79148	6.22478	157.017	-30.716	-11.0551	174.906	-49.9401	-18.2633	185.298	8.92448	-42.1069	180.314	-3.42511	-64.6922	183.005	-23.1892	-86.6157	202.858	-3.67585	-46.1072	196.173	-19.6046	-65.481	188.839	-37.7932	-88.2682	209.763	-25.6541	-24.985	188.728	-48.1187	-16.925	180.473	-39.4396	12.0748	215.317	-36.3881	-7.26537	194.392	-45.6093	3.79794	185.482	-27.8482	26.2748	223.398	17.1941	8.34406	222.375	28.3816	42.467	192.689	38.5784	19.2167	
246	2.05	164.586	14.8017	23.1555	160.641	-12.7788	-2.43438	171.783	-34.0883	-19.407	193.412	-49.7594	-26.6994	196.495	9.69727	-46.3472	196.41	-1.74283	-72.7204	200.386	-13.0168	-91.0732	215.276	-0.557596	-50.5233	214.2	-15.4642	-71.9223	207.848	-32.6401	-98.685	218.327	-20.4063	-30.5856	204.86	-49.3209	-22.1335	192.725	-39.7399	6.92629	227.788	-31.119	-10.3572	208.861	-46.9265	-3.21562	194.045	-28.914	22.7929	232.537	19.0029	9.61676	226.802	27.2552	41.9762	195.875	37.2389	17.3599	
247	2.05833	169.198	10.555	17.7693	169.22	-14.3611	-11.3372	184.105	-33.9398	-30.7031	205.628	-47.8426	-38.5061	204.665	17.1969	-50.514	209.702	7.27697	-76.5019	214.867	-0.713974	-100.134	224.57	8.91158	-51.8237	227.124	-2.76105	-76.9535	227.387	-15.1444	-103.811	232.9	-18.9601	-35.602	220.317	-44.6079	-28.693	202.877	-37.4288	-0.555088	240.865	-29.6636	-15.4639	218.821	-44.0642	-9.79586	206.493	-32.0414	15.6252	235.969	20.6765	13.3279	226.404	26.1739	40.4681	201.081	36.6512	14.1929	
248	2.06667	176.58	6.68972	14.0722	177.236	-12.7712	-16.6684	196.458	-27.5849	-40.909	219.229	-39.7243	-48.3004	213.078	26.1174	-52.6147	220.491	21.3036	-75.415	227.761	17.4087	-98.8335	236.959	19.5591	-54.352	237.846	14.184	-79.376	242.992	6.21184	-107.753	240.91	-6.64718	-37.7875	230.576	-33.9058	-41.5019	212.046	-33.7475	-10.1327	250.985	-19.5958	-20.2602	231.138	-38.6448	-18.0125	214.435	-29.9631	9.05775	240.275	25.0533	12.3759	234.227	24.7407	43.5908	206.244	33.6039	15.6707	
249	2.075	182.846	5.3985	12.1871	186.567	-8.75774	-25.3238	203.856	-18.9619	-46.4974	230.736	-27.4488	-55.8351	219.182	37.1253	-52.7257	223.062	37.6349	-76.7577	232.673	36.8843	-98.0174	241.534	33.5316	-54.2216	242.925	32.3987	-77.5325	252.348	29.7049	-108.878	247.803	3.58813	-44.4857	240.073	-24.7648	-47.3603	221.481	-30.2094	-19.23	255.681	-8.22091	-27.5108	243.822	-32.7268	-25.5451	223.025	-25.6771	-1.09012	240.661	29.9608	11.2822	233.345	22.8675	43.7694	210.445	34.6911	19.0917	
250	2.08333	185.208	4.85341	4.52604	186.809	-7.12049	-29.1061	206.336	-11.1374	-56.1925	232.688	-14.6059	-60.7476	216.351	48.4696	-51.8772	224.436	51.2626	-71.2376	229.529	55.4142	-94.7141	238.967	45.0708	-49.4407	245.852	48.2041	-76.1368	251.291	51.1262	-105.461	253.301	17.0486	-41.6633	248.452	-10.8207	-54.6798	229.237	-25.2437	-27.307	262.49	2.61477	-30.9905	248.512	-22.4705	-35.6716	231.655	-23.6422	-10.9425	241.663	32.6707	14.0063	234.975	21.6055	39.5773	207.862	34.774	16.1994	
251	2.09167	184.744	3.51404	5.81085	188.674	-2.47776	-27.5865	204.774	-2.88599	-54.6808	233.023	-1.36024	-65.8697	210.9	54.8851	-41.8991	216.22	64.4844	-69.163	227.559	71.3154	-92.6074	232.429	55.9683	-44.8896	239.134	61.9577	-72.7449	241.807	69.7014	-99.6302	249.163	29.2204	-44.0434	249.907	2.07857	-59.2987	232.024	-16.7321	-35.4861	264.995	14.1132	-34.1515	251.361	-9.74648	-42.4598	234.053	-19.5225	-19.1939	242.116	37.1473	13.5757	240.713	19.3488	39.6413	208.722	32.9425	19.626	
252	2.1	186.462	1.58843	7.71667	186.812	3.17083	-29.3466	202.06	5.49912	-55.6768	226.006	6.06198	-63.3558	211.538	60.0706	-35.1126	212.907	71.8905	-61.5283	216.275	82.7936	-85.5275	229.247	62.428	-40.647	233.91	70.3789	-64.218	234.18	81.5532	-97.0244	245.45	37.221	-42.0775	246.009	12.8009	-61.3024	231.611	-10.5248	-38.3298	258.315	24.7158	-34.8666	253.075	-0.855473	-46.5136	239.443	-15.0784	-22.7313	244.26	37.1397	17.5869	243.066	17.7509	41.9452	210.797	31.4098	25.2185	
